<mxfile host="app.diagrams.net" modified="2024-02-05T04:29:00.179Z" agent="Mozilla/5.0 (Windows NT 10.0; Win64; x64) AppleWebKit/537.36 (KHTML, like Gecko) Chrome/121.0.0.0 Safari/537.36 Edg/121.0.0.0" etag="aU-YhF8mq5shOj6HVfZK" version="23.1.1" type="github">
  <diagram name="Page-1" id="8hF1P3pcuAdmBvT3YiMz">
    <mxGraphModel dx="1117" dy="1139" grid="1" gridSize="10" guides="1" tooltips="1" connect="1" arrows="1" fold="1" page="1" pageScale="1" pageWidth="1100" pageHeight="850" math="0" shadow="0">
      <root>
        <mxCell id="0" />
        <mxCell id="1" parent="0" />
      </root>
    </mxGraphModel>
  </diagram>
</mxfile>
